<?xml version="1.0" standalone="no"?>
<!DOCTYPE svg PUBLIC "-//W3C//DTD SVG 1.0//EN" "http://www.w3.org/TR/2001/REC-SVG-20010904/DTD/svg10.dtd">
<svg xmlns="http://www.w3.org/2000/svg" xmlns:xlink="http://www.w3.org/1999/xlink" id="body_1" width="154" height="115">

<defs>
    <linearGradient transform="matrix(1 0 0 1 0 0)"  id="1" x1="587.86" y1="225.09" x2="613.75" y2="232.16">
        <stop stop-color="#ECECEC" offset="0%"/>
        <stop stop-color="#A3A3A3" offset="100%"/>
    </linearGradient>
    <linearGradient transform="matrix(0.60324 0 0 0.60324 -303.34 337.1)"  id="232" x1="203.89" y1="270.07" x2="203.89" y2="426.95">
        <stop stop-color="#EDEDEC" offset="0%"/>
        <stop stop-color="#D7D7D7" offset="100%"/>
    </linearGradient>
    <linearGradient transform="matrix(0.60324 0 0 0.60324 -303.34 337.1)"  id="487" x1="231.46" y1="244.88" x2="294.19" y2="235.37">
        <stop stop-color="#E6E6E5" offset="0%"/>
        <stop stop-color="#C3C3C0" offset="100%"/>
    </linearGradient>
    <linearGradient transform="matrix(0.60324 0 0 0.60324 -303.34 337.1)"  id="742" x1="240.62" y1="283.44" x2="350.89" y2="401.07">
        <stop stop-color="#C1C1C1" offset="0%"/>
        <stop stop-color="#929292" offset="100%"/>
    </linearGradient>
    <linearGradient transform="matrix(1 0 0 1 0 0)"  id="997" x1="360.99" y1="382.51" x2="359.99" y2="388.08">
        <stop stop-color="#853095" offset="0%"/>
        <stop stop-color="#589530" offset="100%"/>
    </linearGradient>
    <radialGradient cx="78.11089%" cy="98.21662%" r="127.08063%" gradientUnits="objectBoundingBox" id="1230">
        <stop offset="0%" stop-color="#E7E7E7" stop-opacity="1"/>
        <stop offset="100%" stop-color="#A7A7AA" stop-opacity="1"/>
    </radialGradient>
<mask id="1496">
<path  transform="matrix(0.65505 0.049334 -0.026458 0.35131 -298.14 425.98)"   d="M496.32 477.43C 496.32 506.23206 484.8662 533.8839 464.50006 554.25006C 444.1339 574.6162 416.48206 586.07 387.68 586.07C 358.87793 586.07 331.22607 574.6162 310.85992 554.25006C 290.49377 533.8839 279.03998 506.23206 279.03998 477.43C 279.03998 448.62793 290.49377 420.97607 310.85992 400.60992C 331.22607 380.24377 358.87793 368.78998 387.68 368.78998C 416.48206 368.78998 444.1339 380.24377 464.50006 400.60992C 484.8662 420.97607 496.32 448.62793 496.32 477.43z" fill="white"/>
</mask>
    <linearGradient transform="matrix(0.60324 0 0 0.60324 -303.34 337.1)"  id="2085" x1="436.27" y1="437.04" x2="500.08" y2="438.64">
        <stop stop-color="#D6D6D6" offset="0%"/>
        <stop stop-color="#797979" offset="100%"/>
    </linearGradient>
    <linearGradient transform="matrix(3.6547 0 0 3.6547 -1597.8 -758.6)"  id="2341" x1="452.03" y1="368.6" x2="412.98" y2="330.27">
        <stop stop-color="#4054CF" offset="0%"/>
        <stop stop-color="#BBC3F6" offset="100%"/>
    </linearGradient>
    <linearGradient transform="matrix(1 0 0 1 0 0)"  id="2595" x1="360.99" y1="382.51" x2="359.99" y2="388.08">
        <stop stop-color="#853095" offset="0%"/>
        <stop stop-color="#A43921" offset="100%"/>
    </linearGradient>
    <radialGradient cx="95.73282%" cy="99.642136%" r="127.08062%" gradientUnits="objectBoundingBox" id="2829">
        <stop offset="0%" stop-color="#F8F8F9" stop-opacity="1"/>
        <stop offset="100%" stop-color="#BAB9BC" stop-opacity="1"/>
    </radialGradient>
<mask id="3096">
<path  transform="matrix(0.45211 -0.77903 0.68681 0.39859 -53.859 485.41)"   d="M370.38498 351.15C 370.38498 355.34012 368.7187 359.3629 365.7558 362.3258C 362.7929 365.2887 358.7701 366.955 354.58 366.955C 350.38986 366.955 346.36707 365.2887 343.40417 362.3258C 340.44128 359.3629 338.775 355.34012 338.775 351.15C 338.775 346.95987 340.44128 342.93707 343.40417 339.97418C 346.36707 337.0113 350.38986 335.345 354.58 335.345C 358.7701 335.345 362.7929 337.0113 365.7558 339.97418C 368.7187 342.93707 370.38498 346.95987 370.38498 351.15z" fill="white"/>
</mask>
    <linearGradient transform="matrix(1 0 0 1 -1.0082 -0.84017)"  id="3678" x1="514.85" y1="610.77" x2="567.95" y2="647.07">
        <stop stop-color="#FFFFFF" offset="0%"/>
        <stop stop-color="#FFFFFF" offset="100%"/>
    </linearGradient>
</defs>

<g transform="matrix(0.34848484 0 0 0.34848484 4.689396 -0)">
	<g transform="matrix(1 0 0 1 263.49 -444.66)">
        <path d="M-110.17 684.73C -109.96 684.63995 -109.77 684.5 -109.57 684.38C -119.7 691.01 -113.33 686.79 -112.17 685.98C -111.479996 685.51996 -110.79 685.04 -110.11 684.57C -109.41 684.08 -108.73 683.57 -108.04 683.07C -107.35 682.57 -106.700005 682.03 -106.05 681.49C -105.39 680.95996 -104.770004 680.38 -104.14 679.81C -103.52 679.23 -102.92 678.61 -102.32 678.01C -101.71 677.41003 -101.12 676.78 -100.54 676.16003C -99.951004 675.53 -99.394 674.88 -98.833 674.23004C -98.301 673.58 -97.763 672.95 -97.224 672.31006C -96.705 671.7001 -96.222 671.06006 -95.733 670.43005C -95.264 669.81006 -94.798004 669.18005 -94.331 668.56006C -93.858 667.94006 -93.447 667.28 -93.025 666.63007C -92.579 665.9601 -92.165 665.2601 -91.745 664.57007C -91.306 663.86005 -90.881004 663.1401 -90.452 662.42004C -90.013 661.69006 -89.591 660.9501 -89.164 660.21C -88.733 659.45 -88.263 658.7 -87.797005 657.95C -87.313 657.19 -86.787 656.45 -86.271 655.7C -85.742004 654.96 -85.19 654.24 -84.643005 653.51C -84.077 652.76 -83.479004 652.04004 -82.88801 651.32C -82.29701 650.6 -81.712006 649.87 -81.12501 649.15C -80.54401 648.41003 -79.96601 647.67004 -79.38601 646.92004C -78.81601 646.19006 -78.23001 645.47003 -77.64601 644.74005C -77.07901 644.04004 -76.51101 643.3301 -75.94301 642.62006C -75.35701 641.88007 -74.73601 641.17004 -74.12301 640.4601C -73.47401 639.7101 -72.80201 638.9801 -72.12601 638.25006C -71.364006 637.44006 -70.52601 636.7101 -69.69101 635.97003C -68.81201 635.21 -67.89501 634.50006 -66.97401 633.79004C -65.92901 632.99005 -64.823006 632.27 -63.719006 631.55005C -61.217007 629.8901 -58.650005 628.3301 -56.072006 626.79004C -54.872005 626.08 -53.677006 625.36005 -52.476006 624.65C -51.295006 623.97003 -50.115005 623.28 -48.931007 622.60004C -47.70601 621.89 -46.459007 621.22003 -45.210007 620.55005C -43.778008 619.77 -42.278008 619.12006 -40.781006 618.48004C -39.167007 617.77 -37.562004 617.05005 -35.955006 616.33C -34.389008 615.63 -32.828007 614.93 -31.269005 614.22003C -29.804005 613.55005 -28.348005 612.86005 -26.897005 612.16003C -25.521006 611.50006 -24.180004 610.77 -22.842005 610.04004C -23.630005 610.67004 -19.392004 607.93005 -20.243004 608.48004C -21.374004 609.2 -22.505005 609.92004 -23.635004 610.64C -23.427004 610.5 -23.220003 610.36 -23.012005 610.22003C -21.688005 609.37006 -20.518005 608.32 -19.352005 607.27C -18.106005 606.19 -17.058004 604.92004 -16.035006 603.63C -14.938005 602.2 -14.209005 600.57 -13.500006 598.93C -12.775005 597.11 -12.454006 595.18 -12.138006 593.26C -11.842007 591.23 -11.850006 589.19 -11.994006 587.16003C -12.157006 585.05005 -12.725006 583.01 -13.434006 581.02C -14.176005 578.96 -15.255006 577.06 -16.392006 575.2C -17.495007 573.43 -18.696007 571.72003 -20.010006 570.10004C -21.227005 568.51 -22.795006 567.37006 -24.433006 566.28C -26.376007 565.17004 -28.559006 564.71 -30.740005 564.37006C -33.505005 563.98004 -36.300007 564.04004 -39.080006 564.19006C -42.242004 564.4001 -45.375008 564.8901 -48.502007 565.37006C -51.675007 565.8301 -54.792007 566.56006 -57.85901 567.48004C -61.10601 568.46 -64.16301 569.92004 -67.15401 571.50006C -63.695007 568.8901 -78.22101 578.12006 -73.14901 575.10004C -70.96901 573.80005 -69.53501 572.75006 -72.20301 574.62006C -75.08301 576.69006 -77.87101 578.8901 -80.63401 581.11005C -83.38401 583.33 -86.04101 585.66003 -88.68701 588.00006C -91.19801 590.24005 -93.68601 592.5101 -96.17001 594.7801C -97.73101 596.2201 -96.95602 595.50006 -98.49802 596.94006L-98.49802 596.94006L-102.750015 598.88007C -101.20001 597.44006 -101.98002 598.1601 -100.41002 596.7201C -97.92002 594.44006 -95.42302 592.1701 -92.90802 589.9201C -90.26302 587.5701 -87.60702 585.2401 -84.86202 583.01013C -82.10202 580.78015 -79.31202 578.58014 -76.442024 576.4901C -72.33903 573.58014 -68.05602 570.89014 -63.653023 568.45013C -60.638023 566.89014 -57.553024 565.45013 -54.284023 564.4901C -51.200024 563.58014 -48.068024 562.8801 -44.885025 562.4301C -41.743027 561.9401 -38.595024 561.46014 -35.419025 561.27014C -32.602024 561.1301 -29.770025 561.0701 -26.971025 561.4901C -24.733025 561.8601 -22.498026 562.3601 -20.518024 563.52014C -18.809025 564.60016 -17.273026 565.89014 -16.007025 567.48016C -14.686025 569.1202 -13.479025 570.85016 -12.368025 572.64014C -11.216024 574.53015 -10.120025 576.46014 -9.357925 578.5501C -8.6241255 580.5701 -8.028925 582.64014 -7.8455253 584.7901C -7.684225 586.8501 -7.644525 588.9201 -7.930325 590.9701C -8.198625 592.9301 -8.559825 594.8701 -9.228425 596.7401C -9.912225 598.4101 -10.620025 600.08014 -11.6950245 601.5501C -12.6950245 602.8701 -13.715025 604.1701 -14.965025 605.2701C -16.119024 606.3301 -17.273026 607.4101 -18.582026 608.2801C -21.194025 609.9601 -23.763025 611.7201 -26.484026 613.2201C -27.826027 613.9501 -29.171026 614.6601 -30.548027 615.32007C -32.000027 616.0101 -33.45503 616.7001 -34.92003 617.37006C -36.478027 618.07007 -38.03803 618.7701 -39.60103 619.4601C -41.21103 620.18005 -42.818027 620.9101 -44.436028 621.6101C -45.930027 622.2701 -47.423027 622.9401 -48.853027 623.7301C -50.102028 624.4001 -51.348026 625.0801 -52.576027 625.8001C -53.757027 626.4801 -54.937027 627.1701 -56.116028 627.8601C -57.314026 628.5701 -58.50903 629.2801 -59.708027 629.9901C -61.391026 631.01013 -66.45203 634.1101 -59.276028 629.6101C -60.37703 630.3201 -61.481026 631.0201 -62.526028 631.8101C -63.450027 632.51013 -64.37403 633.21014 -65.25203 633.9701C -66.09003 634.6801 -66.92603 635.4001 -67.69703 636.19006C -68.37603 636.91003 -69.051025 637.63007 -69.69903 638.38007C -70.31303 639.0901 -70.93303 639.79004 -71.52103 640.5201C -72.09003 641.2301 -72.66003 641.93005 -73.22503 642.6401C -73.81103 643.37006 -74.398026 644.0901 -74.97103 644.82007C -75.55103 645.56006 -76.131035 646.30005 -76.70803 647.05005C -77.29403 647.77 -77.87603 648.50006 -78.46703 649.23004C -79.05804 649.95 -79.65403 650.66003 -80.228035 651.39C -80.77503 652.12 -81.326035 652.84 -81.86304 653.58C -82.380035 654.31 -82.90504 655.05 -83.39804 655.8C -83.86804 656.54 -84.34304 657.27997 -84.77004 658.05C -85.19904 658.77997 -85.62404 659.51996 -86.05304 660.26C -86.48404 660.98 -86.91104 661.69 -87.34204 662.41003C -87.76404 663.10004 -88.18104 663.80005 -88.61504 664.48004C -89.03604 665.14 -89.448044 665.80005 -89.905045 666.43005C -90.37405 667.06006 -90.84204 667.68005 -91.307045 668.31006C -91.795044 668.9501 -92.27705 669.5901 -92.791046 670.2101C -93.33105 670.8501 -93.87205 671.4901 -94.40205 672.13007C -94.959045 672.79004 -95.51205 673.4501 -96.099045 674.0801C -96.681046 674.7101 -97.25804 675.3501 -97.87105 675.9501C -98.473045 676.56006 -99.071045 677.17004 -99.68705 677.7701C -100.31005 678.3501 -100.92005 678.94006 -101.58005 679.4801C -102.23005 680.0201 -102.88005 680.5701 -103.56005 681.0801C -104.25005 681.5901 -104.93005 682.1001 -105.62005 682.5901C -106.30005 683.07007 -106.98005 683.5401 -107.67005 684.0101C -109.50005 685.2901 -111.330055 686.57007 -113.290054 687.6501C -113.50005 687.7601 -113.70006 687.8901 -113.93005 687.9801L-113.93005 687.9801L-110.17005 684.7301L-110.17 684.73z" stroke="none" fill="#000000" fill-rule="nonzero" />
        <path d="M69.893 712.68C 69.888 712.55 69.965 712.45 70.001 712.33C 70.084 712.12 70.147 711.9 70.22 711.69C 70.335 711.38 70.434 711.06 70.54 710.74C 70.703 710.3 70.887 709.88 71.064 709.45C 71.243004 709 71.471 708.58 71.682 708.14C 71.923 707.62 72.324 707.21 72.696 706.77C 73.141 706.29004 73.684 705.93 74.209 705.54004C 74.855 705.12006 75.495 704.68005 76.136 704.25006C 76.801 703.79004 77.474 703.3401 78.146 702.8901C 78.868004 702.4201 79.563 701.9101 80.258 701.4101C 81.03001 700.8501 81.772 700.2501 82.513 699.6501C 83.299 699.0201 84.049 698.3401 84.796 697.6501C 85.581 696.9201 86.334 696.1601 87.089 695.4001C 87.842995 694.6501 88.563995 693.8601 89.285995 693.0801C 89.965 692.3401 90.63899 691.5901 91.314995 690.8501C 91.95 690.1701 92.52799 689.4601 93.07199 688.7101C 93.57699 687.93005 93.55499 687.2301 93.41199 686.3601C 92.99699 685.1701 92.082985 684.3401 91.21099 683.4901C 89.81299 682.2401 88.21599 681.27014 86.58899 680.3501C 84.72099 679.3401 82.80699 678.4101 80.88499 677.5001C 79.07899 676.65015 77.27199 675.8001 75.50699 674.8601C 74.04599 674.1201 72.802986 673.0701 71.59999 671.9801C 70.66599 671.0901 70.29799 670.0201 70.04499 668.8101C 69.93799 667.58014 70.45199 666.59015 71.00199 665.5501C 71.79799 664.26013 72.898994 663.2301 74.02899 662.2401C 76.52199 660.1101 79.44799 658.5901 82.272995 656.9701C 84.482994 655.7501 86.826 654.8101 89.171 653.88007C 92.026 652.7801 94.951996 651.88007 97.881 651.00006C 101.2 650.0201 104.549995 649.13007 107.909996 648.2701C 111.369995 647.3901 114.829994 646.5101 118.28999 645.6401C 121.46999 644.8401 124.649994 644.0301 127.829994 643.19006C 130.64 642.4501 133.45 641.69006 136.22 640.7701C 137.86 640.57007 145.2 636.4101 139.39 639.6701C 141 638.6601 142.25 637.3101 143.13 635.6401C 143.88 634.00006 143.88 632.3501 143.56 630.61005C 143.08 628.57007 142.03 626.75006 140.89 625.0101C 139.55 623.0301 137.88 621.31006 136.13 619.69006C 134.17 617.92004 132.01001 616.4001 129.79001 614.9701C 127.240005 613.3901 124.48001 612.1801 121.69001 611.0901C 118.59001 609.9101 115.36001 609.0801 112.13001 608.31006C 108.72001 607.53 105.26001 606.97003 101.80001 606.4501C 98.32001 605.9501 94.82401 605.56006 91.32901 605.18005C 87.88501 604.79004 84.43001 604.53 80.975006 604.28C 77.323006 604.03 73.66501 603.85004 70.008 603.68005C 66.22 603.49005 62.430004 603.3301 58.640003 603.18005C 55.016003 603.03 51.392002 602.8901 47.768005 602.75006C 44.447006 602.62006 41.125004 602.50006 37.803005 602.37006C 34.742004 602.2601 31.681005 602.1501 28.621006 602.03C 25.797007 601.9 22.974007 601.76 20.151005 601.62006C 17.596004 601.49005 15.041004 601.34 12.486005 601.2001C 10.123005 601.06006 7.759205 600.94006 5.3964047 600.7901C 3.1787047 600.6601 0.9609046 600.5201 -1.2570953 600.3901C -3.4138954 600.2601 -5.5670953 600.07007 -7.720495 599.8901C -9.755995 599.7201 -11.791995 599.56006 -13.827995 599.4001C -15.733995 599.2401 -17.640995 599.1001 -19.547995 598.9501C -21.357994 598.82007 -23.167995 598.69006 -24.978994 598.56006C -26.661995 598.44006 -28.346994 598.36005 -30.033995 598.31006C -31.703995 598.31006 -33.369995 598.44006 -35.033997 598.56006C -36.675995 598.72003 -38.312996 598.9501 -39.934998 599.25006C -41.593998 599.55005 -43.227997 599.97003 -44.858997 600.4001C -46.477997 600.8301 -48.093 601.2701 -49.693996 601.7601C -51.279995 602.2601 -52.855995 602.7901 -54.434 603.31006C -55.946 603.80005 -57.436996 604.35004 -58.922997 604.91003C -60.42 605.46 -61.840996 606.17004 -63.260998 606.89C -64.613 607.59 -65.940994 608.34 -67.272995 609.08C -67.69199 609.31 -68.105995 609.54004 -68.521996 609.78L-68.521996 609.78L-65.385994 607.24005C -65.37399 607.24005 -64.144 606.55005 -64.13699 606.55005C -62.807995 605.81006 -61.480995 605.07007 -60.12699 604.38007C -58.69799 603.67004 -57.263992 602.98004 -55.761993 602.43005C -54.27199 601.88007 -52.777992 601.3301 -51.263992 600.85004C -49.686993 600.33 -48.110992 599.80005 -46.52299 599.31006C -44.91799 598.8301 -43.30099 598.3901 -41.679993 597.9601C -40.04299 597.5401 -38.400993 597.13007 -36.735992 596.8301C -35.103992 596.55005 -33.45999 596.3301 -31.808992 596.18005C -30.136992 596.06006 -28.462992 595.94006 -26.785992 595.97003C -25.097992 596.01 -23.411991 596.12006 -21.727991 596.24005L-21.727991 596.24005L-16.303991 596.63007C -14.398992 596.7801 -12.494991 596.93005 -10.590992 597.0801C -8.559092 597.25006 -6.526992 597.4201 -4.495392 597.5901C -2.3448918 597.7701 -0.19439173 597.9501 1.9600081 598.0801C 4.174208 598.2201 6.388208 598.3601 8.602308 598.50006C 10.961008 598.6401 13.320008 598.7701 15.6790085 598.91003C 18.22601 599.05005 20.773008 599.21 23.322008 599.34C 26.137009 599.49005 28.953009 599.64 31.769009 599.76C 34.82301 599.89 37.877007 600 40.931007 600.12L40.931007 600.12L50.87301 600.51C 54.48901 600.66003 58.10601 600.81 61.722008 600.96C 65.51401 601.12 69.30601 601.28 73.09701 601.45C 76.76101 601.63 80.42501 601.8 84.08501 602.05C 87.546005 602.3 91.006004 602.56 94.45401 602.95996C 97.94901 603.35 101.45001 603.74994 104.93001 604.24994C 108.40001 604.76996 111.87001 605.33997 115.29001 606.12994C 118.53001 606.91 121.78001 607.74994 124.90001 608.93994C 127.71001 610.0499 130.50002 611.25995 133.07 612.86993C 135.31001 614.2999 137.49 615.8399 139.47 617.62994C 141.24 619.26996 142.93001 621.00995 144.3 623.00995C 145.47 624.79 146.55 626.64996 147.07 628.7299C 147.45001 630.5199 147.52 632.2799 146.78001 633.9899C 145.94002 635.7399 144.71 637.1699 143.08002 638.2399C 139.86002 640.12994 136.74002 642.0999 133.13002 643.1599C 130.37003 644.05994 127.57002 644.80994 124.76002 645.5399C 121.59002 646.36993 118.42001 647.1699 115.250015 647.9599C 111.790016 648.8399 108.33002 649.7099 104.87002 650.5899C 101.51002 651.4599 98.16002 652.3599 94.83502 653.3499C 91.89702 654.24994 88.96402 655.1699 86.10503 656.2899C 83.75203 657.2299 81.40402 658.1999 79.19502 659.4599C 84.79302 656.1899 78.82002 659.6099 77.74302 660.7299C 76.64002 661.6999 75.51102 662.6599 74.708015 663.9099C 74.154015 664.8599 73.611015 665.7699 73.64902 666.9099C 73.84302 668.05994 74.167015 669.0299 75.03602 669.86993C 76.207016 670.93994 77.418015 671.95996 78.846016 672.67993C 80.60001 673.6099 82.39702 674.45996 84.193016 675.30994C 86.11902 676.2299 88.03802 677.1699 89.91202 678.18994C 91.57202 679.11993 93.19902 680.1099 94.63202 681.36993C 95.56502 682.2799 96.53202 683.1599 97.00202 684.4099C 97.20002 685.3599 97.31202 686.17993 96.81202 687.0699C 96.29402 687.8499 95.72602 688.5899 95.07302 689.2699C 94.39602 690.0099 93.71702 690.7599 93.04002 691.5099C 92.317024 692.2899 91.59702 693.0799 90.845024 693.8399C 90.09103 694.5999 89.343025 695.36993 88.564026 696.0999C 87.82203 696.7999 87.07603 697.4899 86.29202 698.12994C 85.55702 698.7399 84.82202 699.33997 84.05502 699.89996C 83.36402 700.41 82.676025 700.93 81.95802 701.39996C 81.28503 701.83997 80.61002 702.29 79.94802 702.75995C 79.31102 703.18994 78.67702 703.61993 78.03302 704.04C 77.50302 704.41 76.95802 704.75 76.49602 705.19995C 76.11702 705.58997 75.710014 705.95996 75.444016 706.44995C 75.22601 706.86993 74.99402 707.29 74.81502 707.73C 74.63702 708.14996 74.44902 708.57 74.28802 708.99C 74.18502 709.31 74.068016 709.62 73.97602 709.93C 73.90702 710.14996 73.82402 710.35 73.77002 710.57C 73.72702 710.67 73.721016 710.79 73.64102 710.87L73.64102 710.87L69.89302 712.68L69.893 712.68z" stroke="none" fill="#000000" fill-rule="nonzero" />
		<g transform="matrix(5.3061 0 0 5.3061 -3356.1 -472.98)">
            <path d="M615.86 234.43L630.75 224.64L630.75 222.09L609.37 214.08L599.58 213.82L584.56 220.31001C 584.56 220.31001 580.49 229.6 592.96 231.51001C 605.43005 233.42001 613.83 235.45001 615.86005 234.43001L615.86005 234.43001L615.86 234.43z" stroke="none" fill="none" />
            <path d="M613.67 234.38L617.02997 230.19L630.61 222.05L630.72 222.39L630.72 224.46L617.08997 233.85C 617.08997 233.85 615.74 234.84001 613.66 234.66C 611.58997 234.48001 613.67 234.38 613.67 234.38z" stroke="none" fill="#53555D" fill-rule="nonzero" />
            <path d="M584.41 222.05L617.75 229.8L613.46 234.64L592.26 231.34C 592.26 231.34 583.91003 229.2 584.41003 222.05L584.41003 222.05L584.41 222.05z" stroke="none" fill="url(#1)" />
            <path d="M602.88 212.12L609.42 213.98999L630.61 222.04999L617.36 230.23999L584.39996 222.06C 584.43 221.31 584.56995 220.45 585.45996 219.97L585.45996 219.97L602.87994 212.12L602.88 212.12z" stroke="none" fill="#CCCCCD" fill-rule="nonzero" />
            <path d="M585.59 221.09L588.95 222.05L590.4 221.14L587.73004 220.1L585.59 221.09001L585.59 221.09z" stroke="none" fill="#A0A0A0" fill-rule="nonzero" fill-opacity="0.6901961" />
            <path d="M589.01 219.8L591.42 220.84L593.5 219.70999L591.14 218.79999L589.01 219.79999L589.01 219.8z" stroke="none" fill="#A0A0A0" fill-rule="nonzero" fill-opacity="0.6901961" />
            <path d="M591.67 218.45L594.91 219.76L596.72 218.73L593.62 217.70999L591.67 218.45z" stroke="none" fill="#A0A0A0" fill-rule="nonzero" fill-opacity="0.6901961" />
            <path d="M594.21 217.3L596.57 218.17L598.7 217.20999L596.34 216.31L594.21 217.3z" stroke="none" fill="#A0A0A0" fill-rule="nonzero" fill-opacity="0.6901961" />
            <path d="M597.16 216.12L599.51996 216.98999L601.64996 216.02998L599.29 215.12999L597.16 216.12z" stroke="none" fill="#A0A0A0" fill-rule="nonzero" fill-opacity="0.6901961" />
            <path d="M600.02 214.89L602.05005 215.67L603.88007 214.81L601.85004 213.98999L600.02 214.88998L600.02 214.89z" stroke="none" fill="#A0A0A0" fill-rule="nonzero" fill-opacity="0.6901961" />
            <path d="M602.28 213.88L603.95 214.45001L605.47003 213.82L603.79004 213.22L602.28 213.88z" stroke="none" fill="#A0A0A0" fill-rule="nonzero" fill-opacity="0.6901961" />
            <path d="M604.66 214.71L606.33997 215.28001L607.85 214.66002L606.17 214.06001L604.66 214.71z" stroke="none" fill="#A0A0A0" fill-rule="nonzero" fill-opacity="0.6901961" />
            <path d="M606.93 215.47L608.61 216.03L610.12 215.41L608.45 214.81L606.93 215.47z" stroke="none" fill="#A0A0A0" fill-rule="nonzero" fill-opacity="0.6901961" />
            <path d="M609.16 216.24L610.82996 216.8L612.35 216.18001L610.67 215.58L609.16 216.24z" stroke="none" fill="#A0A0A0" fill-rule="nonzero" fill-opacity="0.6901961" />
            <path d="M611.29 216.96L612.97 216.40001L614.48 217.02L612.81 217.62001L611.29 216.96z" stroke="none" fill="#A0A0A0" fill-rule="nonzero" fill-opacity="0.6901961" />
            <path d="M613.6 217.78L615.27997 218.35L616.8 217.72L615.12 217.12L613.6 217.78z" stroke="none" fill="#A0A0A0" fill-rule="nonzero" fill-opacity="0.6901961" />
            <path d="M615.87 218.55L617.55 219.12001L619.07 218.49L617.39 217.90001L615.87 218.55z" stroke="none" fill="#A0A0A0" fill-rule="nonzero" fill-opacity="0.6901961" />
            <path d="M617.78 219.28L619.46 219.84L620.97003 219.22L619.30005 218.62L617.78 219.28z" stroke="none" fill="#A0A0A0" fill-rule="nonzero" fill-opacity="0.6901961" />
            <path d="M619.69 220L621.36 220.57L622.88 219.94L621.2 219.35L619.69 220z" stroke="none" fill="#A0A0A0" fill-rule="nonzero" fill-opacity="0.6901961" />
            <path d="M621.87 220.87L623.54 221.43L625.06 220.81L623.38 220.20999L621.87 220.87z" stroke="none" fill="#A0A0A0" fill-rule="nonzero" fill-opacity="0.6901961" />
            <path d="M623.91 221.55L625.58997 222.11L627.1 221.49L625.42 220.89L623.91 221.55z" stroke="none" fill="#A0A0A0" fill-rule="nonzero" fill-opacity="0.6901961" />
            <path d="M626.19 222.32L627.86 222.89001L629.38 222.26001L627.7 221.66L626.19 222.32z" stroke="none" fill="#A0A0A0" fill-rule="nonzero" fill-opacity="0.6901961" />
            <path d="M594.77 223.41L596.05005 222.77L610.43005 226.27L609.7101 227.40001L594.7701 223.41L594.77 223.41z" stroke="none" fill="#ADADAE" fill-rule="nonzero" />
            <path d="M624.44 223.13L626.12 223.69L627.63 223.07L625.96 222.47L624.44 223.13z" stroke="none" fill="#A0A0A0" fill-rule="nonzero" fill-opacity="0.6901961" />
            <path d="M622.96 224.04L624.63 224.61L626.15 223.98L624.47003 223.39L622.96 224.04z" stroke="none" fill="#A0A0A0" fill-rule="nonzero" fill-opacity="0.6901961" />
            <path d="M621.55 224.86L623.23 225.43001L624.74 224.8L623.06 224.21L621.55 224.86z" stroke="none" fill="#A0A0A0" fill-rule="nonzero" fill-opacity="0.6901961" />
            <path d="M620.14 225.72L621.82 226.29001L623.33 225.66L621.66003 225.07L620.14 225.72z" stroke="none" fill="#A0A0A0" fill-rule="nonzero" fill-opacity="0.6901961" />
            <path d="M618.6 226.54L620.26996 227.11L621.79 226.48L620.11 225.89L618.6 226.54z" stroke="none" fill="#A0A0A0" fill-rule="nonzero" fill-opacity="0.6901961" />
            <path d="M612.63 227.95L614.86 228.51L615.76996 227.89L613.51996 227.29L612.62994 227.95L612.63 227.95z" stroke="none" fill="#A0A0A0" fill-rule="nonzero" fill-opacity="0.6901961" />
            <path d="M609.91 227.4L612.12994 227.97L613.0499 227.34L610.7899 226.75L609.9099 227.4L609.91 227.4z" stroke="none" fill="#A0A0A0" fill-rule="nonzero" fill-opacity="0.6901961" />
            <path d="M589.8 222.09L592.02997 222.66L592.93994 222.03L590.67993 221.44L589.7999 222.09L589.8 222.09z" stroke="none" fill="#A0A0A0" fill-rule="nonzero" fill-opacity="0.6901961" />
            <path d="M592.53 222.68L594.75 223.25L595.66 222.62L593.41 222.03L592.52997 222.68L592.53 222.68z" stroke="none" fill="#A0A0A0" fill-rule="nonzero" fill-opacity="0.6901961" />
            <path d="M603.15 216.05L605.37 216.89L606.27997 215.97L604.02997 215.08L603.14996 216.05L603.15 216.05z" stroke="none" fill="#A0A0A0" fill-rule="nonzero" fill-opacity="0.6901961" />
            <path d="M605.87 216.95L608.1 217.67L609.00995 216.88L606.74994 216.13L605.86993 216.95001L605.87 216.95z" stroke="none" fill="#A0A0A0" fill-rule="nonzero" fill-opacity="0.6901961" />
            <path d="M608.64 217.91L610.86 218.71L611.77997 217.83L609.51996 216.99L608.63995 217.91L608.64 217.91z" stroke="none" fill="#A0A0A0" fill-rule="nonzero" fill-opacity="0.6901961" />
            <path d="M611.68 219.07L613.91 219.93001L614.81995 218.98001L612.55994 218.08002L611.67993 219.07002L611.68 219.07z" stroke="none" fill="#A0A0A0" fill-rule="nonzero" fill-opacity="0.6901961" />
            <path d="M614.45 220.15L617 221.26L618.13 220.15L615.62 218.98999L614.45 220.15z" stroke="none" fill="#A0A0A0" fill-rule="nonzero" fill-opacity="0.6901961" />
            <path d="M617.9 221.25L620.08 222.18L621.17004 221.10999L619.03 220.39998L617.9 221.24998L617.9 221.25z" stroke="none" fill="#A0A0A0" fill-rule="nonzero" fill-opacity="0.6901961" />
            <path d="M621.26 221.87L623.48 222.76L624.38995 222.26L622.13995 221.34L621.25995 221.87L621.26 221.87z" stroke="none" fill="#A0A0A0" fill-rule="nonzero" fill-opacity="0.6901961" />
            <path d="M600.27 217.46L602.26 216.37001L604.62 217.24L602.81 218.42L600.27 217.45999L600.27 217.46z" stroke="none" fill="#ADADAE" fill-rule="nonzero" />
            <path d="M603.31 218.48L605.31 217.39L607.67 218.26L605.85 219.43999L603.31 218.47998L603.31 218.48z" stroke="none" fill="#ADADAE" fill-rule="nonzero" />
            <path d="M606.3 219.57L608.3 218.48001L610.66 219.35L608.85 220.53L606.3 219.56999L606.3 219.57z" stroke="none" fill="#ADADAE" fill-rule="nonzero" />
            <path d="M609.25 220.62L611.25 219.53L613.61 220.39L611.8 221.56999L609.25 220.62z" stroke="none" fill="#ADADAE" fill-rule="nonzero" />
            <path d="M612.16 221.66L614.16 220.57L616.51996 221.43001L614.69995 222.62001L612.16 221.66z" stroke="none" fill="#ADADAE" fill-rule="nonzero" />
            <path d="M615.43 222.71L617.43 221.62001L619.79 222.48001L617.97 223.66L615.43 222.71z" stroke="none" fill="#ADADAE" fill-rule="nonzero" />
            <path d="M615.47 228.69L618.06995 226.81L619.68994 227.54L617.24994 229.26L615.4699 228.68999L615.47 228.69z" stroke="none" fill="#ADADAE" fill-rule="nonzero" />
            <path d="M616.02 224.45L617.29004 223.73L618.11005 224.18L619.97003 223.04999L621.37006 223.68L617.97003 226.12999L615.25006 225.12999L616.0201 224.45L616.02 224.45z" stroke="none" fill="#ADADAE" fill-rule="nonzero" />
            <path d="M619.94 222.73L622.17 223.62L623.07996 223.12L620.82996 222.2L619.93994 222.73L619.94 222.73z" stroke="none" fill="#A0A0A0" fill-rule="nonzero" fill-opacity="0.6901961" />
            <path d="M613.72 227.13L615.94995 227.70001L616.8599 227.07L614.6099 226.48001L613.7199 227.13L613.72 227.13z" stroke="none" fill="#A0A0A0" fill-rule="nonzero" fill-opacity="0.6901961" />
            <path d="M614.68 226.45L616.89996 227.02L617.80994 226.39L615.55994 225.79L614.67993 226.45L614.68 226.45z" stroke="none" fill="#A0A0A0" fill-rule="nonzero" fill-opacity="0.6901961" />
            <path d="M610.91 226.59L613.12994 227.15L614.0399 226.53L611.7899 225.93L610.9099 226.59L610.91 226.59z" stroke="none" fill="#A0A0A0" fill-rule="nonzero" fill-opacity="0.6901961" />
            <path d="M597.73 218.63L599.73 217.54001L602.08997 218.40001L600.27997 219.58L597.73 218.63z" stroke="none" fill="#ADADAE" fill-rule="nonzero" />
            <path d="M601.02 220.1L603.02 219.01001L605.38 219.87001L603.57 221.05L601.02 220.1z" stroke="none" fill="#ADADAE" fill-rule="nonzero" />
            <path d="M604.14 221.1L606.14 220.01001L608.5 220.87001L606.68 222.05L604.14 221.1z" stroke="none" fill="#ADADAE" fill-rule="nonzero" />
            <path d="M607.43 222.18L609.43 221.09L611.79 221.95L609.97 223.12999L607.43 222.18z" stroke="none" fill="#ADADAE" fill-rule="nonzero" />
            <path d="M610.5 223.35L612.5 222.26001L614.86 223.12001L613.04 224.3L610.5 223.35z" stroke="none" fill="#ADADAE" fill-rule="nonzero" />
            <path d="M595.83 219.93L597.31 219.09999L599.67 219.95999L598.37 220.62L595.83 219.93z" stroke="none" fill="#ADADAE" fill-rule="nonzero" />
            <path d="M591.85 221.05L593.85 219.96L596.20996 220.83L594.81995 221.83L591.85 221.05z" stroke="none" fill="#ADADAE" fill-rule="nonzero" />
            <path d="M598.86 220.97L600.33997 220.31L602.69995 221.17L601.39996 222.01L598.86 220.97z" stroke="none" fill="#ADADAE" fill-rule="nonzero" />
            <path d="M601.76 222.18L603.24 221.39L605.6 222.25L604.47 222.83L601.75995 222.18001L601.76 222.18z" stroke="none" fill="#ADADAE" fill-rule="nonzero" />
            <path d="M604.66 223.17L606.22 222.47L608.57996 223.34L607.72 224.34L604.66 223.17z" stroke="none" fill="#ADADAE" fill-rule="nonzero" />
            <path d="M608.12 224.4L609.6 223.4L612.48 224.51999L611.26996 225.48999L608.11993 224.4L608.12 224.4z" stroke="none" fill="#ADADAE" fill-rule="nonzero" />
            <path d="M611.67 225.66L613.01 225.03C 613.73 225.22 614.87 225.4 615.16003 225.6L615.16003 225.6L614.03 226.25L611.67004 225.66L611.67 225.66z" stroke="none" fill="#ADADAE" fill-rule="nonzero" />
            <path d="M614.74 224.89L613.55 224.51L615.43 223.36L616.44 223.7L614.74 224.89z" stroke="none" fill="#ADADAE" fill-rule="nonzero" />
            <path d="M595.22 222.05L597.22 220.96L599.57996 221.82L598.19995 222.83L595.22 222.05z" stroke="none" fill="#ADADAE" fill-rule="nonzero" />
            <path d="M598.56 222.99L600.36 222.13L602.48 222.81L601.24 223.61L598.56 222.99z" stroke="none" fill="#ADADAE" fill-rule="nonzero" />
            <path d="M601.72 224.01L603.42 223.25L605.42 223.85L604.25 224.56001L601.72 224.01001L601.72 224.01z" stroke="none" fill="#ADADAE" fill-rule="nonzero" />
            <path d="M605.17 224.75L606.13995 224.15L607.98 224.62L607.14996 225.25L605.17 224.75z" stroke="none" fill="#ADADAE" fill-rule="nonzero" />
            <path d="M608.25 225.63L609.28 225.07L610.49005 225.51001L609.78 226.03001L608.25 225.63002L608.25 225.63z" stroke="none" fill="#ADADAE" fill-rule="nonzero" />
		</g>
		<g transform="matrix(1 0 0 1 36.12 28.516)">
            <path d="M-187.02 491.04L-165.5 496.67L-105.05 503.93002C -105.05 503.93002 -81.681 581.75 -85.362 583.59C -89.042 585.43005 -129.97 602.61005 -129.97 602.61005L-129.97 602.61005L-167.08 609.77C -167.08 609.77 -185.68001 602.72003 -186.22 596.16003C -188.66 566.07 -187.02 491.04004 -187.02 491.04004L-187.02 491.04004L-187.02 491.04z" stroke="none" fill="url(#232)" />
            <path d="M-186.99 491.02C -180.45001 496.08 -176.73001 497.00998 -166.01001 497.53998C -142.29001 493.56998 -92.12301 475.13998 -92.12301 475.13998L-92.12301 475.13998L-120.19001 467.28998C -120.19001 467.28998 -177.61002 480.99997 -186.99002 491.02L-186.99002 491.02L-186.99 491.02z" stroke="none" fill="url(#487)" />
            <path d="M-166.9 497.47L-167.07999 609.77C -130.40999 611.03 -109.999985 602.94 -82.012985 585.15C -81.98998 551.52 -81.96799 522.75 -81.944984 489.12003C -85.30099 484.45 -88.65698 479.79004 -92.012985 475.12003C -116.969986 482.57004 -140.18999 486.77002 -166.9 497.47003L-166.9 497.47003L-166.9 497.47z" stroke="none" fill="url(#742)" />
            <path transform="matrix(1.4497 -1.421 0.25628 1.3304 -799.78 503.08)"  d="M361.84 388.08C 361.86545 389.4909 361.51758 390.8179 360.93317 391.5391C 360.34872 392.26028 359.62125 392.26028 359.0368 391.5391C 358.4524 390.8179 358.10452 389.4909 358.13 388.08C 358.10452 386.66907 358.4524 385.34207 359.0368 384.62088C 359.62125 383.8997 360.34872 383.8997 360.93317 384.62088C 361.51758 385.34207 361.86545 386.66907 361.84 388.08z" stroke="none" fill="url(#997)" />
            <path d="M-80.104 621.46C -71.48599 636.78 -22.963997 656.36005 24.646004 632.14C 63.173004 612.54004 -39.200996 592.85004 -39.200996 592.85004C -39.200996 592.85004 -97.270996 590.94006 -80.104 621.46z" stroke="none" mask="url(#1496)" fill="url(#1230)"  />
            <path d="M-48.887 612.47L-44.191 571.43994L-8.297001 575.47C -7.789401 590.88995 -5.460701 606.83997 -7.327301 621.57996C -23.9123 625.1 -39.825302 626.99994 -48.887302 612.47L-48.887302 612.47L-48.887 612.47z" stroke="none" fill="url(#2085)" />
            <path d="M-111.65 426.25L88.02999 451.1L63.18599 607.53L-121.77402 568.88L-111.654015 426.25L-111.65 426.25z" stroke="none" fill="url(#2341)" />
            <path d="M-120.58 563.93L60.09999 603.44L63.05399 596.88L-121.48601 558.69L-120.576004 563.93L-120.58 563.93z" stroke="none" fill="#888888" fill-rule="nonzero" fill-opacity="0.65882355" />
            <path d="M-120.9 565.88L60.499992 605.25L61.170994 599.54L-121.90901 561.42L-120.89901 565.88L-120.9 565.88z" stroke="none" fill="#000000" fill-rule="nonzero" />
            <path d="M-111.78 425.86L87.899994 450.71L63.05699 607.14L-121.903015 568.49L-111.78301 425.86L-111.78 425.86z" stroke="#000000" stroke-width="8.0404" fill="none" stroke-opacity="0" />
            <path transform="matrix(1.4497 -1.421 0.25628 1.3304 -800.35 517.37)"  d="M361.84 388.08C 361.86545 389.4909 361.51758 390.8179 360.93317 391.5391C 360.34872 392.26028 359.62125 392.26028 359.0368 391.5391C 358.4524 390.8179 358.10452 389.4909 358.13 388.08C 358.10452 386.66907 358.4524 385.34207 359.0368 384.62088C 359.62125 383.8997 360.34872 383.8997 360.93317 384.62088C 361.51758 385.34207 361.86545 386.66907 361.84 388.08z" stroke="none" fill="url(#2595)" />
		</g>
		<g transform="matrix(0.38484 0 0 0.38484 -148.6 489.97)">
			<g transform="matrix(4.0328 0 0 4.1889 -902.7 -841.21)">
				<g>
                    <path d="M357.7 369.52C 357.7 369.52 355.63 333.78998 377.35 345.43C 370.43 354.47998 358.91 368.91 357.7 369.52z" stroke="none" fill="#9FA1A1" fill-rule="nonzero" />
                    <path d="M377.63 345.46L359.35 368.72C 359.35 368.72 352.4 374.65 340.26 369.52C 328.11002 364.37997 334.27002 356 334.27002 356C 334.27002 356 338.89 350.53 339.91003 350.87C 340.94003 351.21 350.69003 341.12 350.69003 341.12C 350.69003 341.12 352.91003 337.47998 356.34003 336.33C 362.39 336.37997 377.97003 338.78998 377.63004 345.46L377.63004 345.46L377.63 345.46z" stroke="none" fill="#9A999C" fill-rule="nonzero" />
                    <path d="M363.36 363.52L376.34998 347.11C 376.34998 347.11 378.22998 345.05 375.31998 343.86C 372.41998 342.65997 358.39996 346.93 363.36 363.52z" stroke="none" fill="#383D4B" fill-rule="nonzero" />
                    <path d="M363.46 345.5C 363.46 345.5 357.38 339.54 350.84 340.92C 346.23 346.02002 339.03 351 339.03 351C 339.03 351 333.21 356.18 332.91 358.32C 332.4 362 331.92 369.38 347.45 371.57C 352.76 371.75 354.90002 371.82 357.69 369.78C 357.85 364.58 357.87 353.07 363.46 345.5z" stroke="none" mask="url(#3096)" fill="url(#2829)"  />
                    <path d="M354.84 343.22C 356.99 343.43 364.38 338.21 362.86 337.42C 362.21 337.07 360.34998 336.87003 360.53998 336.81003C 358.11 337.60004 353.8 340.47003 354.83997 343.22003L354.83997 343.22003L354.84 343.22z" stroke="none" fill="#212639" fill-rule="nonzero" />
                    <path d="M356.86 341.04C 359.40997 340.7 360.34998 339.04 360.71 338.06C 359.87 338.16998 357.56 337.76 356.86 341.04z" stroke="none" fill="#BAB9BC" fill-rule="nonzero" />
				</g>
			</g>
            <path d="M533.65 567.48C 521.57 571.70996 513.21 583.89996 511.30002 586.88C 492.73 608.21 463.86002 628.91003 463.86002 628.91003C 463.86002 628.91003 440.37003 650.65 439.18002 659.60004C 438.88004 661.85004 438.62003 664.43005 438.52002 667.23004C 438.17 670.91003 438.38 674.95 439.65002 679.13007C 443.22003 693.4501 456.39 709.0201 497.83002 715.1001C 519.21 715.8401 527.84 716.1601 539.11 707.6001C 543.52997 705.2101 545.8 703.1601 545.8 703.1601L545.8 703.1601L600.95996 630.2301L614.36 612.6301C 614.36 612.6301 614.85 612.0501 615.39996 611.1301L615.39996 611.1301L619.49 605.7301C 620.87 577.7801 558.08 567.7101 533.65 567.4801L533.65 567.4801L533.65 567.48z" stroke="none" fill="url(#3678)" />
		</g>
	</g>
</g>
</svg>